<?xml version="1.0" encoding="UTF-8" standalone="no"?>
<!-- Created with Inkscape (http://www.inkscape.org/) -->

<svg
   xmlns:dc="http://purl.org/dc/elements/1.1/"
   xmlns:cc="http://creativecommons.org/ns#"
   xmlns:rdf="http://www.w3.org/1999/02/22-rdf-syntax-ns#"
   xmlns:svg="http://www.w3.org/2000/svg"
   xmlns="http://www.w3.org/2000/svg"
   xmlns:xlink="http://www.w3.org/1999/xlink"
   xmlns:sodipodi="http://sodipodi.sourceforge.net/DTD/sodipodi-0.dtd"
   xmlns:inkscape="http://www.inkscape.org/namespaces/inkscape"
   width="210mm"
   height="297mm"
   viewBox="0 0 210 297"
   version="1.1"
   id="svg8"
   inkscape:version="0.92.3 (2405546, 2018-03-11)"
   sodipodi:docname="valve.svg"
   inkscape:export-filename="C:\Users\YoshidaYuji\Dropbox\MASTER-THESIS\contents\基礎方程式\figure\valve-cylinder.png"
   inkscape:export-xdpi="600"
   inkscape:export-ydpi="600">
  <sodipodi:namedview
     id="base"
     pagecolor="#ffffff"
     bordercolor="#666666"
     borderopacity="1.0"
     inkscape:pageopacity="0.0"
     inkscape:pageshadow="2"
     inkscape:zoom="4.5081967"
     inkscape:cx="347.5"
     inkscape:cy="416.5"
     inkscape:document-units="mm"
     inkscape:current-layer="layer1"
     showgrid="false"
     inkscape:lockguides="true"
     inkscape:window-width="2560"
     inkscape:window-height="1346"
     inkscape:window-x="-11"
     inkscape:window-y="-11"
     inkscape:window-maximized="1"
     inkscape:measure-start="416.882,377.953"
     inkscape:measure-end="434.646,377.953"
     showguides="false" />
  <defs
     id="defs2">
    <marker
       inkscape:isstock="true"
       style="overflow:visible"
       id="TriangleInM"
       refX="0.0"
       refY="0.0"
       orient="auto"
       inkscape:stockid="TriangleInM">
      <path
         transform="scale(-0.4)"
         style="fill-rule:evenodd;stroke:#000000;stroke-width:1pt;stroke-opacity:1;fill:#000000;fill-opacity:1"
         d="M 5.77,0.0 L -2.88,5.0 L -2.88,-5.0 L 5.77,0.0 z "
         id="path5371" />
    </marker>
    <marker
       inkscape:isstock="true"
       style="overflow:visible"
       id="TriangleOutM"
       refX="0.0"
       refY="0.0"
       orient="auto"
       inkscape:stockid="TriangleOutM">
      <path
         transform="scale(0.4)"
         style="fill-rule:evenodd;stroke:#000000;stroke-width:1pt;stroke-opacity:1;fill:#000000;fill-opacity:1"
         d="M 5.77,0.0 L -2.88,5.0 L -2.88,-5.0 L 5.77,0.0 z "
         id="path5380" />
    </marker>
    <marker
       inkscape:isstock="true"
       style="overflow:visible;"
       id="Arrow2Mend"
       refX="0.0"
       refY="0.0"
       orient="auto"
       inkscape:stockid="Arrow2Mend">
      <path
         transform="scale(0.6) rotate(180) translate(0,0)"
         d="M 8.7185878,4.0337352 L -2.2072895,0.016013256 L 8.7185884,-4.0017078 C 6.9730900,-1.6296469 6.9831476,1.6157441 8.7185878,4.0337352 z "
         style="fill-rule:evenodd;stroke-width:0.625;stroke-linejoin:round;stroke:#000000;stroke-opacity:1;fill:#000000;fill-opacity:1"
         id="path5262" />
    </marker>
    <marker
       inkscape:stockid="Arrow1Mend"
       orient="auto"
       refY="0.0"
       refX="0.0"
       id="marker11344"
       style="overflow:visible;"
       inkscape:isstock="true">
      <path
         id="path11342"
         d="M 0.0,0.0 L 5.0,-5.0 L -12.5,0.0 L 5.0,5.0 L 0.0,0.0 z "
         style="fill-rule:evenodd;stroke:#000000;stroke-width:1pt;stroke-opacity:1;fill:#000000;fill-opacity:1"
         transform="scale(0.4) rotate(180) translate(10,0)" />
    </marker>
    <marker
       inkscape:stockid="Arrow1Mend"
       orient="auto"
       refY="0.0"
       refX="0.0"
       id="marker7279"
       style="overflow:visible;"
       inkscape:isstock="true">
      <path
         id="path7277"
         d="M 0.0,0.0 L 5.0,-5.0 L -12.5,0.0 L 5.0,5.0 L 0.0,0.0 z "
         style="fill-rule:evenodd;stroke:#000000;stroke-width:1pt;stroke-opacity:1;fill:#000000;fill-opacity:1"
         transform="scale(0.4) rotate(180) translate(10,0)" />
    </marker>
    <marker
       inkscape:stockid="Arrow1Mstart"
       orient="auto"
       refY="0.0"
       refX="0.0"
       id="marker6919"
       style="overflow:visible"
       inkscape:isstock="true">
      <path
         id="path6917"
         d="M 0.0,0.0 L 5.0,-5.0 L -12.5,0.0 L 5.0,5.0 L 0.0,0.0 z "
         style="fill-rule:evenodd;stroke:#000000;stroke-width:1pt;stroke-opacity:1;fill:#000000;fill-opacity:1"
         transform="scale(0.4) translate(10,0)" />
    </marker>
    <marker
       inkscape:collect="always"
       inkscape:isstock="true"
       style="overflow:visible"
       id="Arrow1Mstart"
       refX="0.0"
       refY="0.0"
       orient="auto"
       inkscape:stockid="Arrow1Mstart">
      <path
         transform="scale(0.4) translate(10,0)"
         style="fill-rule:evenodd;stroke:#000000;stroke-width:1pt;stroke-opacity:1;fill:#000000;fill-opacity:1"
         d="M 0.0,0.0 L 5.0,-5.0 L -12.5,0.0 L 5.0,5.0 L 0.0,0.0 z "
         id="path5241" />
    </marker>
    <marker
       inkscape:stockid="Arrow1Mend"
       orient="auto"
       refY="0.0"
       refX="0.0"
       id="marker6735"
       style="overflow:visible;"
       inkscape:isstock="true">
      <path
         id="path6733"
         d="M 0.0,0.0 L 5.0,-5.0 L -12.5,0.0 L 5.0,5.0 L 0.0,0.0 z "
         style="fill-rule:evenodd;stroke:#000000;stroke-width:1pt;stroke-opacity:1;fill:#000000;fill-opacity:1"
         transform="scale(0.4) rotate(180) translate(10,0)" />
    </marker>
    <marker
       inkscape:collect="always"
       inkscape:isstock="true"
       style="overflow:visible;"
       id="marker6531"
       refX="0.0"
       refY="0.0"
       orient="auto"
       inkscape:stockid="Arrow1Mend">
      <path
         transform="scale(0.4) rotate(180) translate(10,0)"
         style="fill-rule:evenodd;stroke:#000000;stroke-width:1pt;stroke-opacity:1;fill:#000000;fill-opacity:1"
         d="M 0.0,0.0 L 5.0,-5.0 L -12.5,0.0 L 5.0,5.0 L 0.0,0.0 z "
         id="path6529" />
    </marker>
    <marker
       inkscape:collect="always"
       inkscape:stockid="Arrow1Mend"
       orient="auto"
       refY="0.0"
       refX="0.0"
       id="marker6185"
       style="overflow:visible;"
       inkscape:isstock="true">
      <path
         id="path6183"
         d="M 0.0,0.0 L 5.0,-5.0 L -12.5,0.0 L 5.0,5.0 L 0.0,0.0 z "
         style="fill-rule:evenodd;stroke:#000000;stroke-width:1pt;stroke-opacity:1;fill:#000000;fill-opacity:1"
         transform="scale(0.4) rotate(180) translate(10,0)" />
    </marker>
    <marker
       inkscape:collect="always"
       inkscape:isstock="true"
       style="overflow:visible;"
       id="marker5547"
       refX="0.0"
       refY="0.0"
       orient="auto"
       inkscape:stockid="Arrow1Mend">
      <path
         transform="scale(0.4) rotate(180) translate(10,0)"
         style="fill-rule:evenodd;stroke:#000000;stroke-width:1pt;stroke-opacity:1;fill:#000000;fill-opacity:1"
         d="M 0.0,0.0 L 5.0,-5.0 L -12.5,0.0 L 5.0,5.0 L 0.0,0.0 z "
         id="path5545" />
    </marker>
    <marker
       inkscape:isstock="true"
       style="overflow:visible;"
       id="Arrow1Mend"
       refX="0.0"
       refY="0.0"
       orient="auto"
       inkscape:stockid="Arrow1Mend">
      <path
         transform="scale(0.4) rotate(180) translate(10,0)"
         style="fill-rule:evenodd;stroke:#000000;stroke-width:1pt;stroke-opacity:1;fill:#000000;fill-opacity:1"
         d="M 0.0,0.0 L 5.0,-5.0 L -12.5,0.0 L 5.0,5.0 L 0.0,0.0 z "
         id="path5244" />
    </marker>
    <marker
       inkscape:isstock="true"
       style="overflow:visible;"
       id="Arrow2Lend"
       refX="0.0"
       refY="0.0"
       orient="auto"
       inkscape:stockid="Arrow2Lend">
      <path
         transform="scale(1.1) rotate(180) translate(1,0)"
         d="M 8.7185878,4.0337352 L -2.2072895,0.016013256 L 8.7185884,-4.0017078 C 6.9730900,-1.6296469 6.9831476,1.6157441 8.7185878,4.0337352 z "
         style="fill-rule:evenodd;stroke-width:0.625;stroke-linejoin:round;stroke:#000000;stroke-opacity:1;fill:#000000;fill-opacity:1"
         id="path5256" />
    </marker>
    <marker
       inkscape:isstock="true"
       style="overflow:visible;"
       id="Arrow1Lend"
       refX="0.0"
       refY="0.0"
       orient="auto"
       inkscape:stockid="Arrow1Lend">
      <path
         transform="scale(0.8) rotate(180) translate(12.5,0)"
         style="fill-rule:evenodd;stroke:#000000;stroke-width:1pt;stroke-opacity:1;fill:#000000;fill-opacity:1"
         d="M 0.0,0.0 L 5.0,-5.0 L -12.5,0.0 L 5.0,5.0 L 0.0,0.0 z "
         id="path5238" />
    </marker>
  </defs>
  <metadata
     id="metadata5">
    <rdf:RDF>
      <cc:Work
         rdf:about="">
        <dc:format>image/svg+xml</dc:format>
        <dc:type
           rdf:resource="http://purl.org/dc/dcmitype/StillImage" />
        <dc:title />
      </cc:Work>
    </rdf:RDF>
  </metadata>
  <g
     inkscape:groupmode="layer"
     id="layer5"
     inkscape:label="barubu " />
  <g
     inkscape:groupmode="layer"
     id="layer2"
     inkscape:label="色付け"
     style="display:inline" />
  <g
     inkscape:label="レイヤー 1"
     inkscape:groupmode="layer"
     id="layer1"
     style="display:inline">
    <rect
       y="182.14999"
       x="50.150002"
       height="14.7"
       width="5.7000003"
       id="rect13537"
       style="opacity:1;fill:none;fill-opacity:1;stroke:#000000;stroke-width:0.2;stroke-miterlimit:4;stroke-dasharray:0.2,0.4;stroke-dashoffset:0;stroke-opacity:1"
       inkscape:export-xdpi="600"
       inkscape:export-ydpi="600" />
    <g
       inkscape:groupmode="layer"
       id="layer4"
       inkscape:label="レイヤー 2" />
    <path
       inkscape:connector-curvature="0"
       id="path5154"
       d="m 83,181.7 h 19"
       style="fill:none;stroke:#000000;stroke-width:0.60000002;stroke-linecap:butt;stroke-linejoin:miter;stroke-miterlimit:4;stroke-dasharray:none;stroke-opacity:1"
       inkscape:export-xdpi="600"
       inkscape:export-ydpi="600" />
    <path
       style="fill:none;stroke:#000000;stroke-width:0.60000002;stroke-linecap:butt;stroke-linejoin:miter;stroke-miterlimit:4;stroke-dasharray:none;stroke-opacity:1"
       d="M 45,181.70001 H 75"
       id="path5156"
       inkscape:connector-curvature="0"
       inkscape:export-xdpi="600"
       inkscape:export-ydpi="600" />
    <path
       inkscape:connector-curvature="0"
       id="path5158"
       d="m 110,181.70001 h 30"
       style="fill:none;stroke:#000000;stroke-width:0.60000002;stroke-linecap:butt;stroke-linejoin:miter;stroke-miterlimit:4;stroke-dasharray:none;stroke-opacity:1"
       inkscape:export-xdpi="600"
       inkscape:export-ydpi="600" />
    <path
       inkscape:connector-curvature="0"
       id="path5160"
       d="m 74.8,181.70001 v -10"
       style="fill:none;stroke:#000000;stroke-width:0.40000001;stroke-linecap:butt;stroke-linejoin:miter;stroke-miterlimit:4;stroke-dasharray:none;stroke-opacity:1"
       inkscape:export-xdpi="600"
       inkscape:export-ydpi="600" />
    <path
       style="fill:none;stroke:#000000;stroke-width:0.40000001;stroke-linecap:butt;stroke-linejoin:miter;stroke-miterlimit:4;stroke-dasharray:none;stroke-opacity:1"
       d="m 83.2,181.7 v -10"
       id="path5162"
       inkscape:connector-curvature="0"
       inkscape:export-xdpi="600"
       inkscape:export-ydpi="600" />
    <path
       inkscape:connector-curvature="0"
       id="path5164"
       d="m 101.8,181.7 v -10"
       style="fill:none;stroke:#000000;stroke-width:0.40000001;stroke-linecap:butt;stroke-linejoin:miter;stroke-miterlimit:4;stroke-dasharray:none;stroke-opacity:1"
       inkscape:export-xdpi="600"
       inkscape:export-ydpi="600" />
    <path
       style="fill:none;stroke:#000000;stroke-width:0.40000001;stroke-linecap:butt;stroke-linejoin:miter;stroke-miterlimit:4;stroke-dasharray:none;stroke-opacity:1"
       d="m 110.2,181.70001 v -10"
       id="path5166"
       inkscape:connector-curvature="0"
       inkscape:export-xdpi="600"
       inkscape:export-ydpi="600" />
    <path
       inkscape:connector-curvature="0"
       id="path5168"
       d="m 74.7,197 v 2"
       style="fill:none;stroke:#000000;stroke-width:0.60000002;stroke-linecap:butt;stroke-linejoin:miter;stroke-miterlimit:4;stroke-dasharray:none;stroke-opacity:1"
       inkscape:export-xdpi="600"
       inkscape:export-ydpi="600" />
    <path
       style="fill:none;stroke:#000000;stroke-width:0.60000002;stroke-linecap:butt;stroke-linejoin:miter;stroke-miterlimit:4;stroke-dasharray:none;stroke-opacity:1"
       d="m 83.3,197 v 2"
       id="path5170"
       inkscape:connector-curvature="0"
       inkscape:export-xdpi="600"
       inkscape:export-ydpi="600" />
    <path
       inkscape:connector-curvature="0"
       id="path5172"
       d="m 74.7,198.7 h 8.600001"
       style="fill:none;stroke:#000000;stroke-width:0.60000002;stroke-linecap:butt;stroke-linejoin:miter;stroke-miterlimit:4;stroke-dasharray:none;stroke-opacity:1"
       inkscape:export-xdpi="600"
       inkscape:export-ydpi="600" />
    <path
       style="fill:none;stroke:#000000;stroke-width:0.60000002;stroke-linecap:butt;stroke-linejoin:miter;stroke-miterlimit:4;stroke-dasharray:none;stroke-opacity:1"
       d="m 101.7,197 v 2"
       id="path5174"
       inkscape:connector-curvature="0"
       inkscape:export-xdpi="600"
       inkscape:export-ydpi="600" />
    <path
       inkscape:connector-curvature="0"
       id="path5176"
       d="m 110.3,197 v 2"
       style="fill:none;stroke:#000000;stroke-width:0.60000002;stroke-linecap:butt;stroke-linejoin:miter;stroke-miterlimit:4;stroke-dasharray:none;stroke-opacity:1"
       inkscape:export-xdpi="600"
       inkscape:export-ydpi="600" />
    <path
       style="fill:none;stroke:#000000;stroke-width:0.60000002;stroke-linecap:butt;stroke-linejoin:miter;stroke-miterlimit:4;stroke-dasharray:none;stroke-opacity:1"
       d="m 101.7,198.7 h 8.6"
       id="path5178"
       inkscape:connector-curvature="0"
       inkscape:export-xdpi="600"
       inkscape:export-ydpi="600" />
    <g
       transform="translate(0.80000001)"
       id="g5186"
       style=""
       inkscape:export-xdpi="600"
       inkscape:export-ydpi="600">
      <path
         style="fill:none;stroke:#000000;stroke-width:0.40000004;stroke-linecap:butt;stroke-linejoin:miter;stroke-miterlimit:4;stroke-dasharray:none;stroke-opacity:1"
         d="m 60.2,197 v 10"
         id="path5180"
         inkscape:connector-curvature="0" />
      <path
         inkscape:connector-curvature="0"
         id="path5182"
         d="m 68.199997,197 v 10"
         style="fill:none;stroke:#000000;stroke-width:0.40000004;stroke-linecap:butt;stroke-linejoin:miter;stroke-miterlimit:4;stroke-dasharray:none;stroke-opacity:1" />
    </g>
    <path
       inkscape:connector-curvature="0"
       id="path5188"
       d="M 45,197.3 H 61.2"
       style="fill:none;stroke:#000000;stroke-width:0.60000002;stroke-linecap:butt;stroke-linejoin:miter;stroke-miterlimit:4;stroke-dasharray:none;stroke-opacity:1"
       inkscape:export-xdpi="600"
       inkscape:export-ydpi="600" />
    <path
       style="fill:none;stroke:#000000;stroke-width:0.60000008;stroke-linecap:butt;stroke-linejoin:miter;stroke-miterlimit:4;stroke-dasharray:none;stroke-opacity:1"
       d="M 68.8,197.3 H 75"
       id="path5190"
       inkscape:connector-curvature="0"
       inkscape:export-xdpi="600"
       inkscape:export-ydpi="600" />
    <g
       id="g5196"
       transform="translate(28.300003)"
       style=""
       inkscape:export-xdpi="600"
       inkscape:export-ydpi="600">
      <path
         inkscape:connector-curvature="0"
         id="path5192"
         d="m 60.2,197 v 10"
         style="fill:none;stroke:#000000;stroke-width:0.40000004;stroke-linecap:butt;stroke-linejoin:miter;stroke-miterlimit:4;stroke-dasharray:none;stroke-opacity:1" />
      <path
         style="fill:none;stroke:#000000;stroke-width:0.40000004;stroke-linecap:butt;stroke-linejoin:miter;stroke-miterlimit:4;stroke-dasharray:none;stroke-opacity:1"
         d="m 68.199997,197 v 10"
         id="path5194"
         inkscape:connector-curvature="0" />
    </g>
    <g
       transform="translate(55.800001)"
       id="g5202"
       style=""
       inkscape:export-xdpi="600"
       inkscape:export-ydpi="600">
      <path
         style="fill:none;stroke:#000000;stroke-width:0.40000004;stroke-linecap:butt;stroke-linejoin:miter;stroke-miterlimit:4;stroke-dasharray:none;stroke-opacity:1"
         d="m 60.2,197 v 10"
         id="path5198"
         inkscape:connector-curvature="0" />
      <path
         inkscape:connector-curvature="0"
         id="path5200"
         d="m 68.199997,197 v 10"
         style="fill:none;stroke:#000000;stroke-width:0.40000004;stroke-linecap:butt;stroke-linejoin:miter;stroke-miterlimit:4;stroke-dasharray:none;stroke-opacity:1" />
    </g>
    <path
       inkscape:connector-curvature="0"
       id="path5204"
       d="m 110,197.3 h 6.2"
       style="fill:none;stroke:#000000;stroke-width:0.60000008;stroke-linecap:butt;stroke-linejoin:miter;stroke-miterlimit:4;stroke-dasharray:none;stroke-opacity:1"
       inkscape:export-xdpi="600"
       inkscape:export-ydpi="600" />
    <g
       style="fill:#999999;fill-opacity:1"
       transform="translate(1.9999998)"
       id="g5231"
       inkscape:export-xdpi="600"
       inkscape:export-ydpi="600">
      <rect
         style="opacity:1;fill:#999999;fill-opacity:1;stroke:#000000;stroke-width:0.30000001;stroke-miterlimit:4;stroke-dasharray:none;stroke-dashoffset:0;stroke-opacity:1"
         id="rect5212"
         width="79.600006"
         height="4.5999999"
         x="53.042374"
         y="187.2" />
      <g
         id="g5148"
         transform="matrix(1,0,0,0.9971647,0,0.49885213)"
         style="stroke-width:1.00142062;fill:#999999;fill-opacity:1">
        <rect
           y="182.16765"
           x="75.150002"
           height="14.741796"
           width="7.6999998"
           id="rect4826"
           style="opacity:1;fill:#999999;fill-opacity:1;stroke:#000000;stroke-width:0.30042621;stroke-miterlimit:4;stroke-dasharray:none;stroke-dashoffset:0;stroke-opacity:1" />
        <rect
           style="opacity:1;fill:#999999;fill-opacity:1;stroke:#000000;stroke-width:0.30042621;stroke-miterlimit:4;stroke-dasharray:none;stroke-dashoffset:0;stroke-opacity:1"
           id="rect4846"
           width="5.6999998"
           height="14.741796"
           x="76.150002"
           y="182.16765" />
        <rect
           style="opacity:1;fill:#999999;fill-opacity:1;stroke:#000000;stroke-width:0.30042621;stroke-miterlimit:4;stroke-dasharray:none;stroke-dashoffset:0;stroke-opacity:1"
           id="rect4848"
           width="3.7"
           height="14.741797"
           x="77.150002"
           y="182.16765" />
      </g>
      <g
         style="fill:#999999;fill-opacity:1"
         transform="translate(-21.160066,34.75263)"
         id="g4861">
        <rect
           style="opacity:1;fill:#999999;fill-opacity:1;stroke:#000000;stroke-width:0.30000001;stroke-miterlimit:4;stroke-dasharray:none;stroke-dashoffset:0;stroke-opacity:1"
           id="rect4855"
           width="5.7000003"
           height="14.7"
           x="71.310066"
           y="147.39737" />
        <rect
           y="147.39737"
           x="72.010063"
           height="14.7"
           width="4.3000002"
           id="rect4857"
           style="opacity:1;fill:#999999;fill-opacity:1;stroke:#000000;stroke-width:0.30000001;stroke-miterlimit:4;stroke-dasharray:none;stroke-dashoffset:0;stroke-opacity:1" />
        <rect
           y="147.39737"
           x="72.810066"
           height="14.700001"
           width="2.7"
           id="rect4859"
           style="opacity:1;fill:#999999;fill-opacity:1;stroke:#000000;stroke-width:0.30000001;stroke-miterlimit:4;stroke-dasharray:none;stroke-dashoffset:0;stroke-opacity:1" />
      </g>
      <g
         style="fill:#999999;fill-opacity:1"
         id="g4869"
         transform="translate(57.839934,34.75263)">
        <rect
           y="147.39737"
           x="71.310066"
           height="14.7"
           width="5.7000003"
           id="rect4863"
           style="opacity:1;fill:#999999;fill-opacity:1;stroke:#000000;stroke-width:0.30000001;stroke-miterlimit:4;stroke-dasharray:none;stroke-dashoffset:0;stroke-opacity:1" />
        <rect
           style="opacity:1;fill:#999999;fill-opacity:1;stroke:#000000;stroke-width:0.30000001;stroke-miterlimit:4;stroke-dasharray:none;stroke-dashoffset:0;stroke-opacity:1"
           id="rect4865"
           width="4.3000002"
           height="14.7"
           x="72.010063"
           y="147.39737" />
        <rect
           style="opacity:1;fill:#999999;fill-opacity:1;stroke:#000000;stroke-width:0.30000001;stroke-miterlimit:4;stroke-dasharray:none;stroke-dashoffset:0;stroke-opacity:1"
           id="rect4867"
           width="2.7"
           height="14.700001"
           x="72.810066"
           y="147.39737" />
      </g>
      <g
         id="g5140"
         transform="matrix(1,0,0,0.9971647,52.000002,0.55813182)"
         style="stroke-width:1.00142062;fill:#999999;fill-opacity:1">
        <rect
           style="opacity:1;fill:#999999;fill-opacity:1;stroke:#000000;stroke-width:0.30042621;stroke-miterlimit:4;stroke-dasharray:none;stroke-dashoffset:0;stroke-opacity:1"
           id="rect5134"
           width="7.6999998"
           height="14.741796"
           x="50.149998"
           y="182.1082" />
        <rect
           y="182.1082"
           x="51.149998"
           height="14.741796"
           width="5.6999998"
           id="rect5136"
           style="opacity:1;fill:#999999;fill-opacity:1;stroke:#000000;stroke-width:0.30042621;stroke-miterlimit:4;stroke-dasharray:none;stroke-dashoffset:0;stroke-opacity:1" />
        <rect
           y="182.1082"
           x="52.149998"
           height="14.741797"
           width="3.7"
           id="rect5138"
           style="opacity:1;fill:#999999;fill-opacity:1;stroke:#000000;stroke-width:0.30042621;stroke-miterlimit:4;stroke-dasharray:none;stroke-dashoffset:0;stroke-opacity:1" />
      </g>
    </g>
    <path
       style="fill:none;stroke:#000000;stroke-width:0.60000002;stroke-linecap:butt;stroke-linejoin:miter;stroke-miterlimit:4;stroke-dasharray:none;stroke-opacity:1"
       d="M 123.8,197.3 H 140"
       id="path5206"
       inkscape:connector-curvature="0"
       inkscape:export-xdpi="600"
       inkscape:export-ydpi="600" />
    <path
       inkscape:connector-curvature="0"
       id="path5208"
       d="m 83,197.3 h 5.7"
       style="fill:none;stroke:#000000;stroke-width:0.60000008;stroke-linecap:butt;stroke-linejoin:miter;stroke-miterlimit:4;stroke-dasharray:none;stroke-opacity:1"
       inkscape:export-xdpi="600"
       inkscape:export-ydpi="600" />
    <path
       style="fill:none;stroke:#000000;stroke-width:0.60000008;stroke-linecap:butt;stroke-linejoin:miter;stroke-miterlimit:4;stroke-dasharray:none;stroke-opacity:1"
       d="M 96.3,197.3 H 102"
       id="path5210"
       inkscape:connector-curvature="0"
       inkscape:export-xdpi="600"
       inkscape:export-ydpi="600" />
    <path
       inkscape:connector-curvature="0"
       id="path5233"
       d="m 106.00001,175 v -6"
       style="fill:none;stroke:#000000;stroke-width:0.40000001;stroke-linecap:butt;stroke-linejoin:miter;stroke-miterlimit:4;stroke-dasharray:none;stroke-opacity:1;marker-end:url(#marker5547)"
       inkscape:export-xdpi="600"
       inkscape:export-ydpi="600" />
    <path
       style="fill:none;stroke:#000000;stroke-width:0.40000001;stroke-linecap:butt;stroke-linejoin:miter;stroke-miterlimit:4;stroke-dasharray:none;stroke-opacity:1;marker-end:url(#marker6185)"
       d="m 79.000001,175 v -6"
       id="path6181"
       inkscape:connector-curvature="0"
       inkscape:export-xdpi="600"
       inkscape:export-ydpi="600" />
    <path
       inkscape:connector-curvature="0"
       id="path6527"
       d="m 92.500001,208 v -6"
       style="fill:none;stroke:#000000;stroke-width:0.40000001;stroke-linecap:butt;stroke-linejoin:miter;stroke-miterlimit:4;stroke-dasharray:none;stroke-opacity:1;marker-end:url(#marker6531)"
       inkscape:export-xdpi="600"
       inkscape:export-ydpi="600" />
    <path
       style="fill:none;stroke:#000000;stroke-width:0.40000001;stroke-linecap:butt;stroke-linejoin:miter;stroke-miterlimit:4;stroke-dasharray:none;stroke-opacity:1;marker-start:url(#Arrow1Mstart)"
       d="m 64.999999,207.21173 v -6"
       id="path6731"
       inkscape:connector-curvature="0"
       inkscape:export-xdpi="600"
       inkscape:export-ydpi="600" />
    <path
       inkscape:connector-curvature="0"
       id="path6915"
       d="m 120,207.21173 v -6"
       style="fill:none;stroke:#000000;stroke-width:0.40000001;stroke-linecap:butt;stroke-linejoin:miter;stroke-miterlimit:4;stroke-dasharray:none;stroke-opacity:1;marker-start:url(#marker6919)"
       inkscape:export-xdpi="600"
       inkscape:export-ydpi="600" />
    <path
       inkscape:connector-curvature="0"
       id="path7267"
       d="m 50.1,181.65 v -4.7"
       style="fill:none;stroke:#000000;stroke-width:0.2;stroke-linecap:butt;stroke-linejoin:miter;stroke-miterlimit:4;stroke-dasharray:0.6, 0.6;stroke-dashoffset:0;stroke-opacity:1"
       inkscape:export-xdpi="600"
       inkscape:export-ydpi="600" />
    <path
       inkscape:connector-curvature="0"
       id="path7269"
       d="m 50,178.25026 h 3.256893"
       style="fill:none;stroke:#000000;stroke-width:0.29999998;stroke-linecap:butt;stroke-linejoin:miter;stroke-miterlimit:4;stroke-dasharray:none;stroke-opacity:1;marker-end:url(#marker7279)"
       inkscape:export-xdpi="600"
       inkscape:export-ydpi="600" />
    <path
       style="fill:none;stroke:#000000;stroke-width:0.40000004;stroke-linecap:butt;stroke-linejoin:miter;stroke-miterlimit:4;stroke-dasharray:none;stroke-opacity:1;marker-start:url(#TriangleInM);marker-end:url(#TriangleOutM)"
       d="M 114.98486,195.86366 V 183.06319"
       id="path11340"
       inkscape:connector-curvature="0"
       inkscape:export-xdpi="600"
       inkscape:export-ydpi="600" />
    <g
       title="$d_v$"
       style="fill:#000000;stroke-width:2.5"
       id="equation_12"
       transform="matrix(0.4,0,0,0.4,84.650361,160.97445)"
       inkscape:export-xdpi="600"
       inkscape:export-ydpi="600">
      <defs
         id="defs13228">
        <path
           id="equation_12_00"
           d="m 5.140722,-6.804483 c 0,-0.00996 0,-0.109589 -0.129514,-0.109589 -0.14944,0 -1.09589,0.089664 -1.265255,0.109589 -0.079701,0.00996 -0.139477,0.059776 -0.139477,0.18929 0,0.119552 0.089663,0.119552 0.239103,0.119552 0.478207,0 0.498132,0.069738 0.498132,0.169365 L 4.313823,-6.127024 3.716065,-3.765878 C 3.536737,-4.134496 3.247821,-4.403487 2.799502,-4.403487 c -1.165629,0 -2.400996,1.464508 -2.400996,2.919054 0,0.936488 0.547945,1.594022 1.325031,1.594022 0.199253,0 0.697385,-0.039851 1.295143,-0.747198 0.079701,0.418431 0.428393,0.747198 0.9066,0.747198 0.348693,0 0.577833,-0.229141 0.737236,-0.547945 0.169364,-0.358655 0.298879,-0.966376 0.298879,-0.986302 0,-0.099626 -0.089664,-0.099626 -0.119552,-0.099626 -0.099626,0 -0.109589,0.039851 -0.139477,0.179328 -0.169365,0.647571 -0.348692,1.235367 -0.757161,1.235367 -0.268991,0 -0.298879,-0.259029 -0.298879,-0.458281 0,-0.239104 0.019926,-0.308842 0.059776,-0.478207 z M 3.068493,-1.185554 C 3.01868,-1.006227 3.01868,-0.986301 2.86924,-0.816936 c -0.438356,0.547945 -0.846824,0.707347 -1.125778,0.707347 -0.498132,0 -0.637609,-0.547945 -0.637609,-0.936488 0,-0.498132 0.318805,-1.723537 0.547945,-2.181818 0.308842,-0.587796 0.757161,-0.956414 1.155667,-0.956414 0.647571,0 0.787048,0.816937 0.787048,0.876712 0,0.059775 -0.019925,0.119552 -0.029888,0.169365 z"
           inkscape:connector-curvature="0" />
        <path
           id="equation_12_01"
           d="m 3.724035,-2.531507 c 0,-0.54396 -0.327771,-0.550934 -0.348693,-0.550934 -0.18132,0 -0.376587,0.188294 -0.376587,0.369614 0,0.118556 0.069738,0.174346 0.118555,0.216189 0.118556,0.097634 0.258032,0.278954 0.258032,0.557908 0,0.313823 -0.460274,1.813201 -1.290161,1.813201 -0.564882,0 -0.564882,-0.502117 -0.564882,-0.620673 0,-0.320797 0.125529,-0.711332 0.383562,-1.3599 0.05579,-0.146451 0.097633,-0.251059 0.097633,-0.369614 0,-0.36264 -0.306849,-0.599751 -0.662515,-0.599751 -0.697385,0 -1.011208,0.955417 -1.011208,1.066999 0,0.09066 0.097634,0.09066 0.118555,0.09066 0.097634,0 0.104608,-0.034869 0.12553,-0.111582 0.167372,-0.571855 0.467247,-0.850809 0.746201,-0.850809 0.118556,0 0.174346,0.076712 0.174346,0.244084 0,0.160399 -0.05579,0.30685 -0.125529,0.467248 -0.299875,0.774097 -0.376588,1.073973 -0.376588,1.325031 0,0.690411 0.543961,0.913574 1.073973,0.913574 1.171607,0 1.659776,-2.029389 1.659776,-2.601245 z"
           inkscape:connector-curvature="0" />
      </defs>
      <g
         id="equation_12_g"
         style="stroke-width:2.5">
        <use
           id="use13230"
           y="62.764633"
           xlink:href="#equation_12_00"
           x="76.712326"
           width="100%"
           height="100%"
           style="stroke-width:2.5" />
        <use
           id="use13232"
           y="64.25901"
           xlink:href="#equation_12_01"
           x="81.897758"
           width="100%"
           height="100%"
           style="stroke-width:2.5" />
      </g>
    </g>
  </g>
  <g
     inkscape:groupmode="layer"
     id="layer6"
     inkscape:label="文字">
    <g
       transform="matrix(0.4,0,0,0.4,68.144196,145.12105)"
       title="$Q_A$"
       style="display:inline;fill:#000000;stroke-width:2.5"
       id="equation_00"
       inkscape:export-xdpi="600"
       inkscape:export-ydpi="600">
      <defs
         id="defs8257">
        <path
           inkscape:connector-curvature="0"
           id="equation_00_00"
           d="m 4.363636,-0.059776 c 1.54421,-0.587796 3.008718,-2.361146 3.008718,-4.283935 0,-1.603985 -1.05604,-2.67995 -2.540474,-2.67995 -2.15193,0 -4.343711,2.261519 -4.343711,4.582814 0,1.653798 1.115816,2.660025 2.550436,2.660025 0.249066,0 0.587796,-0.03985 0.976339,-0.14944 -0.039851,0.617684 -0.039851,0.637609 -0.039851,0.767124 0,0.318804 0,1.09589 0.8269,1.09589 1.185554,0 1.66376,-1.823163 1.66376,-1.932752 0,-0.069738 -0.069738,-0.099626 -0.109589,-0.099626 -0.079701,0 -0.099626,0.049813 -0.119551,0.109589 -0.239104,0.707347 -0.816937,0.956413 -1.165629,0.956413 -0.458282,0 -0.607721,-0.268991 -0.707348,-1.026152 z M 2.480697,-0.139477 C 1.703611,-0.448319 1.364882,-1.225405 1.364882,-2.122042 c 0,-0.687423 0.259028,-2.102117 1.016189,-3.178083 0.727273,-1.016189 1.663761,-1.47447 2.391034,-1.47447 0.996264,0 1.723536,0.777086 1.723536,2.112079 0,0.996264 -0.508094,3.327522 -2.181818,4.26401 -0.049813,-0.348692 -0.149439,-1.075965 -0.876712,-1.075965 -0.52802,0 -1.016189,0.498132 -1.016189,1.01619 0,0.199252 0.059775,0.308841 0.059775,0.318804 z m 0.617684,0.109589 c -0.139477,0 -0.458281,0 -0.458281,-0.428393 0,-0.398506 0.37858,-0.797012 0.797011,-0.797012 0.418431,0 0.607721,0.239104 0.607721,0.846825 0,0.149439 -0.00996,0.159402 -0.109589,0.199253 -0.259029,0.109589 -0.557908,0.179327 -0.836862,0.179327 z" />
        <path
           inkscape:connector-curvature="0"
           id="equation_00_01"
           d="M 1.436613,-0.836862 C 1.192528,-0.460274 0.969365,-0.278954 0.557908,-0.251059 0.488169,-0.244085 0.397509,-0.244085 0.397509,-0.104608 0.397509,-0.027895 0.460274,0 0.495143,0 0.676463,0 0.9066,-0.027895 1.094894,-0.027895 1.318057,-0.027895 1.603985,0 1.8132,0 c 0.03487,0 0.139477,0 0.139477,-0.153425 0,-0.09066 -0.09066,-0.097634 -0.118555,-0.097634 -0.055791,-0.006973 -0.306849,-0.020921 -0.306849,-0.209215 0,-0.083686 0.069738,-0.202242 0.104607,-0.265006 l 0.557908,-0.864757 h 1.994521 l 0.167372,1.157658 c -0.027895,0.069739 -0.069738,0.18132 -0.481195,0.18132 -0.083686,0 -0.18132,0 -0.18132,0.153425 C 3.689166,-0.069738 3.710087,0 3.800747,0 c 0.202242,0 0.697385,-0.027895 0.899627,-0.027895 0.125529,0 0.285927,0.006973 0.411457,0.006973 C 5.23736,-0.013948 5.383811,0 5.50934,0 5.6,0 5.648817,-0.055791 5.648817,-0.146451 c 0,-0.104608 -0.083686,-0.104608 -0.195268,-0.104608 -0.404483,0 -0.418431,-0.05579 -0.439352,-0.223163 L 4.400498,-4.777086 C 4.379577,-4.923537 4.365629,-4.972354 4.233126,-4.972354 c -0.132503,0 -0.174346,0.062765 -0.237111,0.160399 z m 0.920548,-1.004234 1.464508,-2.280448 0.327771,2.280448 z" />
      </defs>
      <g
         style="stroke-width:2.5"
         id="equation_00_g">
        <use
           style="stroke-width:2.5"
           height="100%"
           width="100%"
           id="use8259"
           y="62.764633"
           xlink:href="#equation_00_00"
           x="76.712326" />
        <use
           style="stroke-width:2.5"
           height="100%"
           width="100%"
           id="use8261"
           y="64.25901"
           xlink:href="#equation_00_01"
           x="84.588341" />
      </g>
    </g>
    <g
       transform="matrix(0.4,0,0,0.4,41.306676,145.12105)"
       id="equation_01"
       style="display:inline;fill:#000000;stroke-width:2.5"
       title="$Q_B$"
       inkscape:export-xdpi="600"
       inkscape:export-ydpi="600">
      <defs
         id="defs8445">
        <path
           inkscape:connector-curvature="0"
           d="m 4.363636,-0.059776 c 1.54421,-0.587796 3.008718,-2.361146 3.008718,-4.283935 0,-1.603985 -1.05604,-2.67995 -2.540474,-2.67995 -2.15193,0 -4.343711,2.261519 -4.343711,4.582814 0,1.653798 1.115816,2.660025 2.550436,2.660025 0.249066,0 0.587796,-0.03985 0.976339,-0.14944 -0.039851,0.617684 -0.039851,0.637609 -0.039851,0.767124 0,0.318804 0,1.09589 0.8269,1.09589 1.185554,0 1.66376,-1.823163 1.66376,-1.932752 0,-0.069738 -0.069738,-0.099626 -0.109589,-0.099626 -0.079701,0 -0.099626,0.049813 -0.119551,0.109589 -0.239104,0.707347 -0.816937,0.956413 -1.165629,0.956413 -0.458282,0 -0.607721,-0.268991 -0.707348,-1.026152 z M 2.480697,-0.139477 C 1.703611,-0.448319 1.364882,-1.225405 1.364882,-2.122042 c 0,-0.687423 0.259028,-2.102117 1.016189,-3.178083 0.727273,-1.016189 1.663761,-1.47447 2.391034,-1.47447 0.996264,0 1.723536,0.777086 1.723536,2.112079 0,0.996264 -0.508094,3.327522 -2.181818,4.26401 -0.049813,-0.348692 -0.149439,-1.075965 -0.876712,-1.075965 -0.52802,0 -1.016189,0.498132 -1.016189,1.01619 0,0.199252 0.059775,0.308841 0.059775,0.318804 z m 0.617684,0.109589 c -0.139477,0 -0.458281,0 -0.458281,-0.428393 0,-0.398506 0.37858,-0.797012 0.797011,-0.797012 0.418431,0 0.607721,0.239104 0.607721,0.846825 0,0.149439 -0.00996,0.159402 -0.109589,0.199253 -0.259029,0.109589 -0.557908,0.179327 -0.836862,0.179327 z"
           id="equation_01_00" />
        <path
           inkscape:connector-curvature="0"
           d="m 1.325031,-0.54396 c -0.062764,0.237111 -0.076712,0.292901 -0.613698,0.292901 -0.118556,0 -0.209216,0 -0.209216,0.146451 C 0.502117,0 0.585803,0 0.711333,0 h 2.698879 c 1.171606,0 2.071233,-0.801993 2.071233,-1.492403 0,-0.495144 -0.453301,-0.920548 -1.192528,-0.997261 0.843835,-0.153424 1.548194,-0.683437 1.548194,-1.283188 0,-0.530012 -0.536986,-0.990286 -1.443587,-0.990286 h -2.53848 c -0.132504,0 -0.223164,0 -0.223164,0.153424 0,0.097634 0.083687,0.097634 0.223164,0.097634 0.00697,0 0.139477,0 0.265006,0.013948 0.146451,0.013948 0.160398,0.027895 0.160398,0.097634 0,0.013948 0,0.048817 -0.027895,0.153425 z M 2.440847,-2.57335 2.866252,-4.274969 C 2.922042,-4.491158 2.929016,-4.51208 3.221918,-4.51208 h 1.060025 c 0.711332,0 0.871731,0.467248 0.871731,0.732254 0,0.564882 -0.63462,1.206476 -1.569116,1.206476 z m -0.334745,2.322291 c -0.216189,0 -0.223163,-0.006973 -0.223163,-0.069738 0,-0.006974 0,-0.041843 0.027895,-0.146451 L 2.39203,-2.378082 h 1.478456 c 0.655541,0 0.9066,0.432378 0.9066,0.836862 0,0.690411 -0.704359,1.290161 -1.548194,1.290161 z"
           id="equation_01_01" />
      </defs>
      <g
         style="stroke-width:2.5"
         id="equation_01_g">
        <use
           style="stroke-width:2.5"
           height="100%"
           width="100%"
           x="76.712326"
           xlink:href="#equation_01_00"
           y="62.764633"
           id="use8447" />
        <use
           style="stroke-width:2.5"
           height="100%"
           width="100%"
           x="84.588341"
           xlink:href="#equation_01_01"
           y="64.25901"
           id="use8449" />
      </g>
    </g>
    <g
       transform="matrix(0.4,0,0,0.4,23.365939,154.01169)"
       title="$x_v$"
       style="display:inline;fill:#000000;stroke-width:2.5"
       id="equation_02"
       inkscape:export-xdpi="600"
       inkscape:export-ydpi="600">
      <defs
         id="defs8647">
        <path
           inkscape:connector-curvature="0"
           id="equation_02_00"
           d="m 3.327522,-3.008717 c 0.059776,-0.259029 0.288916,-1.175592 0.986301,-1.175592 0.049813,0 0.288917,0 0.498132,0.129514 -0.278954,0.049814 -0.478207,0.29888 -0.478207,0.537983 0,0.159402 0.109589,0.348692 0.378581,0.348692 0.219178,0 0.537982,-0.179327 0.537982,-0.577833 0,-0.518057 -0.587795,-0.657534 -0.926525,-0.657534 -0.577833,0 -0.926526,0.52802 -1.046077,0.757161 -0.249066,-0.657535 -0.787049,-0.757161 -1.075966,-0.757161 -1.036114,0 -1.603985,1.285181 -1.603985,1.534247 0,0.099626 0.099627,0.099626 0.119552,0.099626 0.079701,0 0.109589,-0.019925 0.129514,-0.109589 0.33873,-1.05604 0.996264,-1.305106 1.334994,-1.305106 0.18929,0 0.537983,0.089664 0.537983,0.667497 0,0.308842 -0.169365,0.976339 -0.537983,2.371108 -0.159402,0.617684 -0.508094,1.036115 -0.946451,1.036115 -0.059775,0 -0.288916,0 -0.498132,-0.129514 0.249066,-0.049814 0.468244,-0.259029 0.468244,-0.537983 0,-0.268991 -0.219178,-0.348692 -0.368617,-0.348692 -0.298879,0 -0.547945,0.259028 -0.547945,0.577833 0,0.458281 0.498132,0.657534 0.936488,0.657534 0.657534,0 1.016189,-0.697385 1.046077,-0.757161 0.119552,0.368618 0.478207,0.757161 1.075965,0.757161 1.026152,0 1.594022,-1.285181 1.594022,-1.534247 0,-0.099626 -0.089663,-0.099626 -0.119551,-0.099626 -0.089664,0 -0.109589,0.039851 -0.129515,0.109589 -0.328767,1.066003 -1.006226,1.305106 -1.325031,1.305106 -0.388543,0 -0.547945,-0.318805 -0.547945,-0.657534 0,-0.219178 0.059776,-0.438356 0.169365,-0.876713 z" />
        <path
           inkscape:connector-curvature="0"
           id="equation_02_01"
           d="m 3.724035,-2.531507 c 0,-0.54396 -0.327771,-0.550934 -0.348693,-0.550934 -0.18132,0 -0.376587,0.188294 -0.376587,0.369614 0,0.118556 0.069738,0.174346 0.118555,0.216189 0.118556,0.097634 0.258032,0.278954 0.258032,0.557908 0,0.313823 -0.460274,1.813201 -1.290161,1.813201 -0.564882,0 -0.564882,-0.502117 -0.564882,-0.620673 0,-0.320797 0.125529,-0.711332 0.383562,-1.3599 0.05579,-0.146451 0.097633,-0.251059 0.097633,-0.369614 0,-0.36264 -0.306849,-0.599751 -0.662515,-0.599751 -0.697385,0 -1.011208,0.955417 -1.011208,1.066999 0,0.09066 0.097634,0.09066 0.118555,0.09066 0.097634,0 0.104608,-0.034869 0.12553,-0.111582 0.167372,-0.571855 0.467247,-0.850809 0.746201,-0.850809 0.118556,0 0.174346,0.076712 0.174346,0.244084 0,0.160399 -0.05579,0.30685 -0.125529,0.467248 -0.299875,0.774097 -0.376588,1.073973 -0.376588,1.325031 0,0.690411 0.543961,0.913574 1.073973,0.913574 1.171607,0 1.659776,-2.029389 1.659776,-2.601245 z" />
      </defs>
      <g
         style="stroke-width:2.5"
         id="equation_02_g">
        <use
           style="stroke-width:2.5"
           height="100%"
           width="100%"
           id="use8649"
           y="62.764633"
           xlink:href="#equation_02_00"
           x="76.712326" />
        <use
           style="stroke-width:2.5"
           height="100%"
           width="100%"
           id="use8651"
           y="64.25901"
           xlink:href="#equation_02_01"
           x="82.406258" />
      </g>
    </g>
    <g
       transform="matrix(0.4,0,0,0.4,59.540781,175.12105)"
       id="equation_03"
       style="display:inline;fill:#000000;stroke-width:2.5"
       title="$p_P$"
       inkscape:export-xdpi="600"
       inkscape:export-ydpi="600">
      <defs
         id="defs8863">
        <path
           inkscape:connector-curvature="0"
           d="M 0.448319,1.215442 C 0.368618,1.554172 0.348692,1.62391 -0.089664,1.62391 c -0.119551,0 -0.22914,0 -0.22914,0.18929 0,0.079702 0.049813,0.119552 0.129514,0.119552 0.268991,0 0.557908,-0.029888 0.836862,-0.029888 0.328767,0 0.667496,0.029888 0.986301,0.029888 0.049813,0 0.179327,0 0.179327,-0.199253 0,-0.109589 -0.099626,-0.109589 -0.239103,-0.109589 -0.498132,0 -0.498132,-0.069738 -0.498132,-0.159402 0,-0.119552 0.418431,-1.743462 0.488169,-1.992528 0.129515,0.288917 0.408469,0.637609 0.916563,0.637609 1.155667,0 2.400997,-1.454545 2.400997,-2.919054 0,-0.936488 -0.567871,-1.594022 -1.325031,-1.594022 -0.498132,0 -0.976339,0.358655 -1.305106,0.747198 -0.099627,-0.537982 -0.52802,-0.747198 -0.896638,-0.747198 -0.458281,0 -0.647572,0.388543 -0.737235,0.567871 -0.179328,0.338729 -0.308842,0.936488 -0.308842,0.966376 0,0.099626 0.099626,0.099626 0.119552,0.099626 0.099626,0 0.109589,-0.00996 0.169364,-0.229141 0.169365,-0.707347 0.368618,-1.185554 0.727273,-1.185554 0.169365,0 0.308842,0.079701 0.308842,0.458282 0,0.22914 -0.029888,0.338729 -0.069739,0.508094 z m 1.753424,-4.323786 c 0.069739,-0.268991 0.33873,-0.547945 0.518058,-0.697385 0.348692,-0.308841 0.637609,-0.37858 0.806974,-0.37858 0.398505,0 0.637609,0.348693 0.637609,0.936488 0,0.587795 -0.328768,1.7335 -0.508095,2.11208 -0.33873,0.697385 -0.816937,1.026152 -1.185554,1.026152 -0.657535,0 -0.787049,-0.826899 -0.787049,-0.886675 0,-0.019925 0,-0.039851 0.029888,-0.159402 z"
           id="equation_03_00" />
        <path
           inkscape:connector-curvature="0"
           d="m 2.378082,-2.161893 h 1.262267 c 1.17858,0 2.17584,-0.753175 2.17584,-1.513325 0,-0.585803 -0.571855,-1.08792 -1.527272,-1.08792 H 1.84807 c -0.139477,0 -0.223163,0 -0.223163,0.153424 0,0.097634 0.076712,0.097634 0.230137,0.097634 0.111581,0 0.139477,0 0.265006,0.013948 0.139477,0.013948 0.153424,0.027895 0.153424,0.097634 0,0.013948 0,0.048817 -0.027895,0.153425 l -0.920548,3.675217 c -0.069738,0.271981 -0.076712,0.320797 -0.620672,0.320797 -0.12553,0 -0.209216,0 -0.209216,0.153425 0,0.006974 0,0.097634 0.111582,0.097634 0.202241,0 0.704358,-0.027895 0.9066,-0.027895 0.118555,0 0.36264,0 0.481196,0.006973 C 2.133998,-0.013948 2.308344,0 2.440847,0 2.48269,0 2.587298,0 2.587298,-0.153425 c 0,-0.097634 -0.083687,-0.097634 -0.223164,-0.097634 -0.00697,0 -0.139476,0 -0.265006,-0.013947 C 1.93873,-0.278954 1.93873,-0.299875 1.93873,-0.369614 c 0,-0.006974 0,-0.048817 0.027895,-0.153425 z M 2.880199,-4.274969 C 2.93599,-4.491158 2.942964,-4.51208 3.235866,-4.51208 h 0.81594 c 0.648568,0 1.053051,0.195268 1.053051,0.690411 0,0.21619 -0.083686,0.767124 -0.432379,1.080947 C 4.42142,-2.517559 4.02391,-2.385056 3.521793,-2.385056 H 2.405978 Z"
           id="equation_03_01" />
      </defs>
      <g
         style="stroke-width:2.5"
         id="equation_03_g">
        <use
           style="stroke-width:2.5"
           height="100%"
           width="100%"
           x="76.712326"
           xlink:href="#equation_03_00"
           y="62.764633"
           id="use8865" />
        <use
           style="stroke-width:2.5"
           height="100%"
           width="100%"
           x="81.724792"
           xlink:href="#equation_03_01"
           y="64.25901"
           id="use8867" />
      </g>
    </g>
    <g
       transform="matrix(0.4,0,0,0.4,32.382239,175.12105)"
       title="$p_T$"
       style="display:inline;fill:#000000;stroke-width:2.5"
       id="equation_04"
       inkscape:export-xdpi="600"
       inkscape:export-ydpi="600">
      <defs
         id="defs9093">
        <path
           inkscape:connector-curvature="0"
           id="equation_04_00"
           d="M 0.448319,1.215442 C 0.368618,1.554172 0.348692,1.62391 -0.089664,1.62391 c -0.119551,0 -0.22914,0 -0.22914,0.18929 0,0.079702 0.049813,0.119552 0.129514,0.119552 0.268991,0 0.557908,-0.029888 0.836862,-0.029888 0.328767,0 0.667496,0.029888 0.986301,0.029888 0.049813,0 0.179327,0 0.179327,-0.199253 0,-0.109589 -0.099626,-0.109589 -0.239103,-0.109589 -0.498132,0 -0.498132,-0.069738 -0.498132,-0.159402 0,-0.119552 0.418431,-1.743462 0.488169,-1.992528 0.129515,0.288917 0.408469,0.637609 0.916563,0.637609 1.155667,0 2.400997,-1.454545 2.400997,-2.919054 0,-0.936488 -0.567871,-1.594022 -1.325031,-1.594022 -0.498132,0 -0.976339,0.358655 -1.305106,0.747198 -0.099627,-0.537982 -0.52802,-0.747198 -0.896638,-0.747198 -0.458281,0 -0.647572,0.388543 -0.737235,0.567871 -0.179328,0.338729 -0.308842,0.936488 -0.308842,0.966376 0,0.099626 0.099626,0.099626 0.119552,0.099626 0.099626,0 0.109589,-0.00996 0.169364,-0.229141 0.169365,-0.707347 0.368618,-1.185554 0.727273,-1.185554 0.169365,0 0.308842,0.079701 0.308842,0.458282 0,0.22914 -0.029888,0.338729 -0.069739,0.508094 z m 1.753424,-4.323786 c 0.069739,-0.268991 0.33873,-0.547945 0.518058,-0.697385 0.348692,-0.308841 0.637609,-0.37858 0.806974,-0.37858 0.398505,0 0.637609,0.348693 0.637609,0.936488 0,0.587795 -0.328768,1.7335 -0.508095,2.11208 -0.33873,0.697385 -0.816937,1.026152 -1.185554,1.026152 -0.657535,0 -0.787049,-0.826899 -0.787049,-0.886675 0,-0.019925 0,-0.039851 0.029888,-0.159402 z" />
        <path
           inkscape:connector-curvature="0"
           id="equation_04_01"
           d="m 3.38929,-4.219178 c 0.048817,-0.202242 0.062765,-0.223163 0.216189,-0.237111 0.03487,-0.00697 0.278954,-0.00697 0.418431,-0.00697 0.425405,0 0.606725,0 0.781071,0.055791 0.313823,0.097634 0.327771,0.299875 0.327771,0.550934 0,0.111582 0,0.202242 -0.048817,0.564882 L 5.069988,-3.21494 c 0,0.069739 0.048816,0.104608 0.118555,0.104608 0.104608,0 0.118555,-0.062765 0.132503,-0.174346 L 5.50934,-4.616687 c 0,-0.097634 -0.083686,-0.097634 -0.209215,-0.097634 H 1.011208 c -0.174346,0 -0.188294,0 -0.237111,0.146451 l -0.439352,1.234371 c -0.006974,0.027895 -0.03487,0.09066 -0.03487,0.125529 0,0.027895 0.013948,0.097634 0.118556,0.097634 0.09066,0 0.104608,-0.034869 0.146451,-0.167373 0.404483,-1.115815 0.63462,-1.185554 1.694645,-1.185554 h 0.292901 c 0.209216,0 0.21619,0.00697 0.21619,0.069739 0,0.00697 0,0.041843 -0.027896,0.146451 l -0.920548,3.668244 c -0.062764,0.258032 -0.083686,0.32777 -0.81594,0.32777 -0.251058,0 -0.313823,0 -0.313823,0.153425 C 0.690411,-0.076712 0.704359,0 0.808966,0 1.004234,0 1.21345,-0.020922 1.408717,-0.020922 c 0.195267,0 0.404483,-0.006973 0.599751,-0.006973 0.195268,0 0.432379,0 0.627647,0.006973 C 2.824408,-0.013948 3.033624,0 3.221918,0 c 0.055791,0 0.160398,0 0.160398,-0.153425 0,-0.097634 -0.069738,-0.097634 -0.285927,-0.097634 -0.132504,0 -0.271981,-0.006973 -0.404484,-0.013947 -0.23711,-0.020922 -0.251058,-0.048817 -0.251058,-0.132503 0,-0.048817 0,-0.062765 0.027895,-0.160399 z" />
      </defs>
      <g
         style="stroke-width:2.5"
         id="equation_04_g">
        <use
           style="stroke-width:2.5"
           height="100%"
           width="100%"
           id="use9095"
           y="62.764633"
           xlink:href="#equation_04_00"
           x="76.712326" />
        <use
           style="stroke-width:2.5"
           height="100%"
           width="100%"
           id="use9097"
           y="64.25901"
           xlink:href="#equation_04_01"
           x="81.724792" />
      </g>
    </g>
    <g
       transform="matrix(0.4,0,0,0.4,77.518066,145.12105)"
       id="equation_05"
       style="display:inline;fill:#000000;stroke-width:2.5"
       title="$p_A$"
       inkscape:export-xdpi="600"
       inkscape:export-ydpi="600">
      <defs
         id="defs9337">
        <path
           inkscape:connector-curvature="0"
           d="M 0.448319,1.215442 C 0.368618,1.554172 0.348692,1.62391 -0.089664,1.62391 c -0.119551,0 -0.22914,0 -0.22914,0.18929 0,0.079702 0.049813,0.119552 0.129514,0.119552 0.268991,0 0.557908,-0.029888 0.836862,-0.029888 0.328767,0 0.667496,0.029888 0.986301,0.029888 0.049813,0 0.179327,0 0.179327,-0.199253 0,-0.109589 -0.099626,-0.109589 -0.239103,-0.109589 -0.498132,0 -0.498132,-0.069738 -0.498132,-0.159402 0,-0.119552 0.418431,-1.743462 0.488169,-1.992528 0.129515,0.288917 0.408469,0.637609 0.916563,0.637609 1.155667,0 2.400997,-1.454545 2.400997,-2.919054 0,-0.936488 -0.567871,-1.594022 -1.325031,-1.594022 -0.498132,0 -0.976339,0.358655 -1.305106,0.747198 -0.099627,-0.537982 -0.52802,-0.747198 -0.896638,-0.747198 -0.458281,0 -0.647572,0.388543 -0.737235,0.567871 -0.179328,0.338729 -0.308842,0.936488 -0.308842,0.966376 0,0.099626 0.099626,0.099626 0.119552,0.099626 0.099626,0 0.109589,-0.00996 0.169364,-0.229141 0.169365,-0.707347 0.368618,-1.185554 0.727273,-1.185554 0.169365,0 0.308842,0.079701 0.308842,0.458282 0,0.22914 -0.029888,0.338729 -0.069739,0.508094 z m 1.753424,-4.323786 c 0.069739,-0.268991 0.33873,-0.547945 0.518058,-0.697385 0.348692,-0.308841 0.637609,-0.37858 0.806974,-0.37858 0.398505,0 0.637609,0.348693 0.637609,0.936488 0,0.587795 -0.328768,1.7335 -0.508095,2.11208 -0.33873,0.697385 -0.816937,1.026152 -1.185554,1.026152 -0.657535,0 -0.787049,-0.826899 -0.787049,-0.886675 0,-0.019925 0,-0.039851 0.029888,-0.159402 z"
           id="equation_05_00" />
        <path
           inkscape:connector-curvature="0"
           d="M 1.436613,-0.836862 C 1.192528,-0.460274 0.969365,-0.278954 0.557908,-0.251059 0.488169,-0.244085 0.397509,-0.244085 0.397509,-0.104608 0.397509,-0.027895 0.460274,0 0.495143,0 0.676463,0 0.9066,-0.027895 1.094894,-0.027895 1.318057,-0.027895 1.603985,0 1.8132,0 c 0.03487,0 0.139477,0 0.139477,-0.153425 0,-0.09066 -0.09066,-0.097634 -0.118555,-0.097634 -0.055791,-0.006973 -0.306849,-0.020921 -0.306849,-0.209215 0,-0.083686 0.069738,-0.202242 0.104607,-0.265006 l 0.557908,-0.864757 h 1.994521 l 0.167372,1.157658 c -0.027895,0.069739 -0.069738,0.18132 -0.481195,0.18132 -0.083686,0 -0.18132,0 -0.18132,0.153425 C 3.689166,-0.069738 3.710087,0 3.800747,0 c 0.202242,0 0.697385,-0.027895 0.899627,-0.027895 0.125529,0 0.285927,0.006973 0.411457,0.006973 C 5.23736,-0.013948 5.383811,0 5.50934,0 5.6,0 5.648817,-0.055791 5.648817,-0.146451 c 0,-0.104608 -0.083686,-0.104608 -0.195268,-0.104608 -0.404483,0 -0.418431,-0.05579 -0.439352,-0.223163 L 4.400498,-4.777086 C 4.379577,-4.923537 4.365629,-4.972354 4.233126,-4.972354 c -0.132503,0 -0.174346,0.062765 -0.237111,0.160399 z m 0.920548,-1.004234 1.464508,-2.280448 0.327771,2.280448 z"
           id="equation_05_01" />
      </defs>
      <g
         style="stroke-width:2.5"
         id="equation_05_g">
        <use
           style="stroke-width:2.5"
           height="100%"
           width="100%"
           x="76.712326"
           xlink:href="#equation_05_00"
           y="62.764633"
           id="use9339" />
        <use
           style="stroke-width:2.5"
           height="100%"
           width="100%"
           x="81.724792"
           xlink:href="#equation_05_01"
           y="64.25901"
           id="use9341" />
      </g>
    </g>
    <g
       transform="matrix(0.4,0,0,0.4,50.359524,145.12105)"
       title="$p_B$"
       style="display:inline;fill:#000000;stroke-width:2.5"
       id="equation_06"
       inkscape:export-xdpi="600"
       inkscape:export-ydpi="600">
      <defs
         id="defs9595">
        <path
           inkscape:connector-curvature="0"
           id="equation_06_00"
           d="M 0.448319,1.215442 C 0.368618,1.554172 0.348692,1.62391 -0.089664,1.62391 c -0.119551,0 -0.22914,0 -0.22914,0.18929 0,0.079702 0.049813,0.119552 0.129514,0.119552 0.268991,0 0.557908,-0.029888 0.836862,-0.029888 0.328767,0 0.667496,0.029888 0.986301,0.029888 0.049813,0 0.179327,0 0.179327,-0.199253 0,-0.109589 -0.099626,-0.109589 -0.239103,-0.109589 -0.498132,0 -0.498132,-0.069738 -0.498132,-0.159402 0,-0.119552 0.418431,-1.743462 0.488169,-1.992528 0.129515,0.288917 0.408469,0.637609 0.916563,0.637609 1.155667,0 2.400997,-1.454545 2.400997,-2.919054 0,-0.936488 -0.567871,-1.594022 -1.325031,-1.594022 -0.498132,0 -0.976339,0.358655 -1.305106,0.747198 -0.099627,-0.537982 -0.52802,-0.747198 -0.896638,-0.747198 -0.458281,0 -0.647572,0.388543 -0.737235,0.567871 -0.179328,0.338729 -0.308842,0.936488 -0.308842,0.966376 0,0.099626 0.099626,0.099626 0.119552,0.099626 0.099626,0 0.109589,-0.00996 0.169364,-0.229141 0.169365,-0.707347 0.368618,-1.185554 0.727273,-1.185554 0.169365,0 0.308842,0.079701 0.308842,0.458282 0,0.22914 -0.029888,0.338729 -0.069739,0.508094 z m 1.753424,-4.323786 c 0.069739,-0.268991 0.33873,-0.547945 0.518058,-0.697385 0.348692,-0.308841 0.637609,-0.37858 0.806974,-0.37858 0.398505,0 0.637609,0.348693 0.637609,0.936488 0,0.587795 -0.328768,1.7335 -0.508095,2.11208 -0.33873,0.697385 -0.816937,1.026152 -1.185554,1.026152 -0.657535,0 -0.787049,-0.826899 -0.787049,-0.886675 0,-0.019925 0,-0.039851 0.029888,-0.159402 z" />
        <path
           inkscape:connector-curvature="0"
           id="equation_06_01"
           d="m 1.325031,-0.54396 c -0.062764,0.237111 -0.076712,0.292901 -0.613698,0.292901 -0.118556,0 -0.209216,0 -0.209216,0.146451 C 0.502117,0 0.585803,0 0.711333,0 h 2.698879 c 1.171606,0 2.071233,-0.801993 2.071233,-1.492403 0,-0.495144 -0.453301,-0.920548 -1.192528,-0.997261 0.843835,-0.153424 1.548194,-0.683437 1.548194,-1.283188 0,-0.530012 -0.536986,-0.990286 -1.443587,-0.990286 h -2.53848 c -0.132504,0 -0.223164,0 -0.223164,0.153424 0,0.097634 0.083687,0.097634 0.223164,0.097634 0.00697,0 0.139477,0 0.265006,0.013948 0.146451,0.013948 0.160398,0.027895 0.160398,0.097634 0,0.013948 0,0.048817 -0.027895,0.153425 z M 2.440847,-2.57335 2.866252,-4.274969 C 2.922042,-4.491158 2.929016,-4.51208 3.221918,-4.51208 h 1.060025 c 0.711332,0 0.871731,0.467248 0.871731,0.732254 0,0.564882 -0.63462,1.206476 -1.569116,1.206476 z m -0.334745,2.322291 c -0.216189,0 -0.223163,-0.006973 -0.223163,-0.069738 0,-0.006974 0,-0.041843 0.027895,-0.146451 L 2.39203,-2.378082 h 1.478456 c 0.655541,0 0.9066,0.432378 0.9066,0.836862 0,0.690411 -0.704359,1.290161 -1.548194,1.290161 z" />
      </defs>
      <g
         style="stroke-width:2.5"
         id="equation_06_g">
        <use
           style="stroke-width:2.5"
           height="100%"
           width="100%"
           id="use9597"
           y="62.764633"
           xlink:href="#equation_06_00"
           x="76.712326" />
        <use
           style="stroke-width:2.5"
           height="100%"
           width="100%"
           id="use9599"
           y="64.25901"
           xlink:href="#equation_06_01"
           x="81.724792" />
      </g>
    </g>
    <g
       transform="matrix(0.4,0,0,0.4,79.965811,155.68101)"
       id="equation_07"
       style="display:inline;fill:#000000;stroke-width:2.5"
       title="$\mathrm{A}$"
       inkscape:export-xdpi="600"
       inkscape:export-ydpi="600">
      <defs
         id="defs9866">
        <path
           inkscape:connector-curvature="0"
           d="M 3.965131,-6.933998 C 3.915318,-7.063512 3.895392,-7.13325 3.73599,-7.13325 c -0.159402,0 -0.18929,0.059776 -0.239103,0.199252 L 1.43462,-0.976339 C 1.255293,-0.468244 0.856787,-0.318804 0.318804,-0.308842 V 0 c 0.229141,-0.009963 0.657535,-0.029888 1.01619,-0.029888 0.308842,0 0.826899,0.019925 1.145703,0.029888 v -0.308842 c -0.498132,0 -0.747198,-0.249066 -0.747198,-0.508094 0,-0.029888 0.00996,-0.129515 0.019926,-0.14944 l 0.458281,-1.305106 h 2.460772 l 0.52802,1.524284 c 0.00996,0.039851 0.029888,0.099626 0.029888,0.139477 0,0.298879 -0.557908,0.298879 -0.826899,0.298879 V 0 c 0.358655,-0.029888 1.05604,-0.029888 1.43462,-0.029888 0.428394,0 0.886675,0.009963 1.305106,0.029888 V -0.308842 H 6.963885 c -0.597758,0 -0.737235,-0.069738 -0.846824,-0.398505 z m -0.52802,1.115816 1.125778,3.237858 H 2.321295 Z"
           id="equation_07_00" />
      </defs>
      <g
         style="stroke-width:2.5"
         id="equation_07_g">
        <use
           style="stroke-width:2.5"
           height="100%"
           width="100%"
           x="76.712326"
           xlink:href="#equation_07_00"
           y="62.764633"
           id="use9868" />
      </g>
    </g>
    <g
       transform="matrix(0.4,0,0,0.4,52.8666,155.61526)"
       title="$\mathrm{B}$"
       style="display:inline;fill:#000000;stroke-width:2.5"
       id="equation_08"
       inkscape:export-xdpi="600"
       inkscape:export-ydpi="600">
      <defs
         id="defs10145">
        <path
           inkscape:connector-curvature="0"
           id="equation_08_00"
           d="m 2.211706,-3.646326 v -2.45081 c 0,-0.328767 0.019925,-0.398505 0.488169,-0.398505 h 1.235368 c 0.966376,0 1.315068,0.846824 1.315068,1.374844 0,0.637609 -0.488169,1.474471 -1.594022,1.474471 z m 2.351183,0.089663 c 0.966376,-0.18929 1.653798,-0.826899 1.653798,-1.564134 0,-0.86675 -0.916562,-1.683686 -2.211706,-1.683686 H 0.358655 v 0.308842 h 0.239103 c 0.767124,0 0.787049,0.109589 0.787049,0.468244 v 5.250311 c 0,0.358655 -0.019925,0.468244 -0.787049,0.468244 H 0.358655 V 0 H 4.26401 c 1.325031,0 2.221669,-0.886675 2.221669,-1.823163 0,-0.86675 -0.816937,-1.613948 -1.92279,-1.7335 z m -0.617684,3.247821 h -1.24533 c -0.468244,0 -0.488169,-0.069738 -0.488169,-0.398505 v -2.719801 h 1.872976 c 0.986302,0 1.404733,0.926525 1.404733,1.594022 0,0.707348 -0.518058,1.524284 -1.54421,1.524284 z" />
      </defs>
      <g
         style="stroke-width:2.5"
         id="equation_08_g">
        <use
           style="stroke-width:2.5"
           height="100%"
           width="100%"
           id="use10147"
           y="62.764633"
           xlink:href="#equation_08_00"
           x="76.712326" />
      </g>
    </g>
    <g
       transform="matrix(0.4,0,0,0.4,54.404413,175.89415)"
       id="equation_09"
       style="display:inline;fill:#000000;stroke-width:2.5"
       title="$\mathrm{P}$"
       inkscape:export-xdpi="600"
       inkscape:export-ydpi="600">
      <defs
         id="defs10434">
        <path
           inkscape:connector-curvature="0"
           d="m 2.261519,-3.148194 h 1.683686 c 1.195517,0 2.271482,-0.806974 2.271482,-1.803238 0,-0.976339 -0.986301,-1.853051 -2.351183,-1.853051 H 0.348692 v 0.308842 h 0.239104 c 0.767123,0 0.787048,0.109589 0.787048,0.468244 v 5.250311 c 0,0.358655 -0.019925,0.468244 -0.787048,0.468244 H 0.348692 V 0 C 0.697385,-0.029888 1.43462,-0.029888 1.8132,-0.029888 c 0.37858,0 1.125779,0 1.474471,0.029888 V -0.308842 H 3.048568 c -0.767123,0 -0.787049,-0.109589 -0.787049,-0.468244 z M 2.231631,-3.407223 v -2.689913 c 0,-0.328767 0.019926,-0.398505 0.48817,-0.398505 h 0.886675 c 1.584059,0 1.584059,1.05604 1.584059,1.544209 0,0.468244 0,1.544209 -1.584059,1.544209 z"
           id="equation_09_00" />
      </defs>
      <g
         style="stroke-width:2.5"
         id="equation_09_g">
        <use
           style="stroke-width:2.5"
           height="100%"
           width="100%"
           x="76.712326"
           xlink:href="#equation_09_00"
           y="62.764633"
           id="use10436" />
      </g>
    </g>
    <g
       transform="matrix(0.4,0,0,0.4,26.79644,175.88219)"
       title="$\mathrm{T}$"
       style="display:inline;fill:#000000;stroke-width:2.5"
       id="equation_10"
       inkscape:export-xdpi="600"
       inkscape:export-ydpi="600">
      <defs
         id="defs10733">
        <path
           inkscape:connector-curvature="0"
           id="equation_10_00"
           d="M 6.635118,-6.744707 H 0.547945 l -0.18929,2.241594 h 0.249066 c 0.139477,-1.603985 0.288917,-1.932753 1.793275,-1.932753 0.179328,0 0.438356,0 0.537983,0.019926 0.209215,0.03985 0.209215,0.149439 0.209215,0.37858 v 5.250311 c 0,0.33873 0,0.478207 -1.046077,0.478207 H 1.703611 V 0 c 0.408469,-0.029888 1.424658,-0.029888 1.882939,-0.029888 0.458281,0 1.484434,0 1.892902,0.029888 V -0.308842 H 5.080946 c -1.046077,0 -1.046077,-0.139477 -1.046077,-0.478207 V -6.03736 c 0,-0.199253 0,-0.33873 0.179328,-0.37858 0.109589,-0.019926 0.37858,-0.019926 0.56787,-0.019926 1.504359,0 1.653799,0.328768 1.793275,1.932753 h 0.249066 z" />
      </defs>
      <g
         style="stroke-width:2.5"
         id="equation_10_g">
        <use
           style="stroke-width:2.5"
           height="100%"
           width="100%"
           id="use10735"
           y="62.764633"
           xlink:href="#equation_10_00"
           x="76.712326" />
      </g>
    </g>
    <g
       transform="matrix(0.4,0,0,0.4,58.210098,196.21171)"
       id="equation_11"
       style="display:inline;fill:#000000;stroke-width:2.5"
       title="$\mathrm{Spool}$"
       inkscape:export-xdpi="600"
       inkscape:export-ydpi="600">
      <defs
         id="defs11045">
        <path
           inkscape:connector-curvature="0"
           d="M 3.476961,-3.865504 2.201743,-4.174346 C 1.58406,-4.323786 1.195517,-4.861768 1.195517,-5.439601 c 0,-0.697385 0.537982,-1.305106 1.315068,-1.305106 1.663761,0 1.882939,1.633873 1.942715,2.082191 0.00996,0.059776 0.00996,0.119552 0.119552,0.119552 0.129514,0 0.129514,-0.049813 0.129514,-0.239103 v -2.002491 c 0,-0.169365 0,-0.239103 -0.109589,-0.239103 -0.069738,0 -0.079701,0.00996 -0.14944,0.129514 L 4.094645,-6.326276 C 3.795766,-6.615193 3.387298,-7.023661 2.500623,-7.023661 c -1.105853,0 -1.942715,0.876712 -1.942715,1.932752 0,0.826899 0.52802,1.554172 1.305106,1.823163 0.109589,0.039851 0.617683,0.159402 1.315068,0.328767 0.268991,0.069739 0.567871,0.139477 0.846825,0.508095 0.209215,0.259028 0.308841,0.587796 0.308841,0.916563 0,0.707347 -0.498132,1.424657 -1.334993,1.424657 -0.288917,0 -1.046078,-0.049813 -1.574097,-0.537982 C 0.846824,-1.165629 0.816936,-1.803238 0.806974,-2.161893 0.797011,-2.261519 0.71731,-2.261519 0.687422,-2.261519 c -0.129514,0 -0.129514,0.069738 -0.129514,0.249066 v 1.992528 c 0,0.169365 0,0.239103 0.109589,0.239103 0.069738,0 0.079701,-0.019925 0.149439,-0.129514 0,-0.009963 0.029888,-0.039851 0.358656,-0.567871 0.308841,0.33873 0.94645,0.697385 1.833125,0.697385 1.165629,0 1.96264,-0.976339 1.96264,-2.072229 0,-0.996264 -0.657534,-1.813201 -1.494396,-2.012453 z"
           id="equation_11_00" />
        <path
           inkscape:connector-curvature="0"
           d="m 1.763387,-6.914072 -1.43462,0.109589 v 0.308842 c 0.697385,0 0.777086,0.069738 0.777086,0.557908 v 5.180572 c 0,0.448319 -0.109589,0.448319 -0.777086,0.448319 V 0 c 0.328767,-0.009963 0.856787,-0.029888 1.105853,-0.029888 0.249066,0 0.737236,0.019925 1.105853,0.029888 v -0.308842 c -0.667497,0 -0.777086,0 -0.777086,-0.448319 z"
           id="equation_11_01" />
        <path
           inkscape:connector-curvature="0"
           d="m 4.692403,-2.132005 c 0,-1.275218 -0.996264,-2.331258 -2.201743,-2.331258 -1.24533,0 -2.211706,1.085928 -2.211706,2.331258 0,1.285181 1.036114,2.241594 2.201743,2.241594 1.20548,0 2.211706,-0.976339 2.211706,-2.241594 z M 2.49066,-0.139477 c -0.428393,0 -0.86675,-0.209215 -1.135741,-0.667497 -0.249066,-0.438356 -0.249066,-1.046077 -0.249066,-1.404732 0,-0.388543 0,-0.926526 0.239103,-1.364882 0.268992,-0.458281 0.737236,-0.667497 1.135741,-0.667497 0.438357,0 0.86675,0.219178 1.125779,0.647572 0.259029,0.428394 0.259028,1.006227 0.259028,1.384807 0,0.358655 0,0.896638 -0.219178,1.334994 -0.219178,0.448318 -0.657534,0.737235 -1.155666,0.737235 z"
           id="equation_11_02" />
        <path
           inkscape:connector-curvature="0"
           d="m 1.713574,-3.745953 v -0.657534 l -1.43462,0.109589 v 0.308842 c 0.707347,0 0.777086,0.059776 0.777086,0.498132 v 4.662516 c 0,0.448318 -0.109589,0.448318 -0.777086,0.448318 V 1.932752 C 0.617684,1.92279 1.135741,1.902864 1.39477,1.902864 c 0.268991,0 0.777086,0.019926 1.125778,0.029888 V 1.62391 c -0.667497,0 -0.777086,0 -0.777086,-0.448318 v -1.673724 -0.089664 c 0.049813,0.159402 0.468244,0.697385 1.225405,0.697385 1.185554,0 2.221668,-0.976339 2.221668,-2.261519 0,-1.265256 -0.966376,-2.251557 -2.082191,-2.251557 -0.777086,0 -1.195517,0.438356 -1.39477,0.657534 z m 0.029888,2.610212 V -3.35741 c 0.288917,-0.508094 0.777086,-0.797011 1.285181,-0.797011 0.727272,0 1.334993,0.876712 1.334993,2.002491 0,1.205479 -0.697384,2.042341 -1.43462,2.042341 -0.398505,0 -0.777086,-0.199253 -1.046077,-0.607721 C 1.743462,-0.926526 1.743462,-0.936488 1.743462,-1.135741 Z"
           id="equation_11_03" />
      </defs>
      <g
         transform="translate(104.49297,-47.83242)"
         style="stroke-width:2.5"
         id="equation_11_g">
        <use
           style="stroke-width:2.5"
           height="100%"
           width="100%"
           x="76.712326"
           xlink:href="#equation_11_00"
           y="62.764633"
           id="use11047" />
        <use
           style="stroke-width:2.5"
           height="100%"
           width="100%"
           x="82.247147"
           xlink:href="#equation_11_03"
           y="62.764633"
           id="use11049" />
        <use
           style="stroke-width:2.5"
           height="100%"
           width="100%"
           x="88.058708"
           xlink:href="#equation_11_02"
           y="62.764633"
           id="use11051" />
        <use
           style="stroke-width:2.5"
           height="100%"
           width="100%"
           x="93.316795"
           xlink:href="#equation_11_02"
           y="62.764633"
           id="use11053" />
        <use
           style="stroke-width:2.5"
           height="100%"
           width="100%"
           x="98.298141"
           xlink:href="#equation_11_01"
           y="62.764633"
           id="use11055" />
      </g>
    </g>
    <g
       id="g11314"
       style="display:inline;fill:#000000;stroke-width:2.5"
       title="$\mathrm{T}$"
       transform="matrix(0.4,0,0,0.4,81.883978,175.88219)"
       inkscape:export-xdpi="600"
       inkscape:export-ydpi="600">
      <defs
         id="defs11308">
        <path
           d="M 6.635118,-6.744707 H 0.547945 l -0.18929,2.241594 h 0.249066 c 0.139477,-1.603985 0.288917,-1.932753 1.793275,-1.932753 0.179328,0 0.438356,0 0.537983,0.019926 0.209215,0.03985 0.209215,0.149439 0.209215,0.37858 v 5.250311 c 0,0.33873 0,0.478207 -1.046077,0.478207 H 1.703611 V 0 c 0.408469,-0.029888 1.424658,-0.029888 1.882939,-0.029888 0.458281,0 1.484434,0 1.892902,0.029888 V -0.308842 H 5.080946 c -1.046077,0 -1.046077,-0.139477 -1.046077,-0.478207 V -6.03736 c 0,-0.199253 0,-0.33873 0.179328,-0.37858 0.109589,-0.019926 0.37858,-0.019926 0.56787,-0.019926 1.504359,0 1.653799,0.328768 1.793275,1.932753 h 0.249066 z"
           id="path11306"
           inkscape:connector-curvature="0" />
      </defs>
      <g
         id="g11312"
         style="stroke-width:2.5">
        <use
           x="76.712326"
           xlink:href="#equation_10_00"
           y="62.764633"
           id="use11310"
           width="100%"
           height="100%"
           style="stroke-width:2.5" />
      </g>
    </g>
    <g
       id="g11328"
       style="display:inline;fill:#000000;stroke-width:2.5"
       title="$p_T$"
       transform="matrix(0.4,0,0,0.4,87.341368,175.12105)"
       inkscape:export-xdpi="600"
       inkscape:export-ydpi="600">
      <defs
         id="defs11320">
        <path
           d="M 0.448319,1.215442 C 0.368618,1.554172 0.348692,1.62391 -0.089664,1.62391 c -0.119551,0 -0.22914,0 -0.22914,0.18929 0,0.079702 0.049813,0.119552 0.129514,0.119552 0.268991,0 0.557908,-0.029888 0.836862,-0.029888 0.328767,0 0.667496,0.029888 0.986301,0.029888 0.049813,0 0.179327,0 0.179327,-0.199253 0,-0.109589 -0.099626,-0.109589 -0.239103,-0.109589 -0.498132,0 -0.498132,-0.069738 -0.498132,-0.159402 0,-0.119552 0.418431,-1.743462 0.488169,-1.992528 0.129515,0.288917 0.408469,0.637609 0.916563,0.637609 1.155667,0 2.400997,-1.454545 2.400997,-2.919054 0,-0.936488 -0.567871,-1.594022 -1.325031,-1.594022 -0.498132,0 -0.976339,0.358655 -1.305106,0.747198 -0.099627,-0.537982 -0.52802,-0.747198 -0.896638,-0.747198 -0.458281,0 -0.647572,0.388543 -0.737235,0.567871 -0.179328,0.338729 -0.308842,0.936488 -0.308842,0.966376 0,0.099626 0.099626,0.099626 0.119552,0.099626 0.099626,0 0.109589,-0.00996 0.169364,-0.229141 0.169365,-0.707347 0.368618,-1.185554 0.727273,-1.185554 0.169365,0 0.308842,0.079701 0.308842,0.458282 0,0.22914 -0.029888,0.338729 -0.069739,0.508094 z m 1.753424,-4.323786 c 0.069739,-0.268991 0.33873,-0.547945 0.518058,-0.697385 0.348692,-0.308841 0.637609,-0.37858 0.806974,-0.37858 0.398505,0 0.637609,0.348693 0.637609,0.936488 0,0.587795 -0.328768,1.7335 -0.508095,2.11208 -0.33873,0.697385 -0.816937,1.026152 -1.185554,1.026152 -0.657535,0 -0.787049,-0.826899 -0.787049,-0.886675 0,-0.019925 0,-0.039851 0.029888,-0.159402 z"
           id="path11316"
           inkscape:connector-curvature="0" />
        <path
           d="m 3.38929,-4.219178 c 0.048817,-0.202242 0.062765,-0.223163 0.216189,-0.237111 0.03487,-0.00697 0.278954,-0.00697 0.418431,-0.00697 0.425405,0 0.606725,0 0.781071,0.055791 0.313823,0.097634 0.327771,0.299875 0.327771,0.550934 0,0.111582 0,0.202242 -0.048817,0.564882 L 5.069988,-3.21494 c 0,0.069739 0.048816,0.104608 0.118555,0.104608 0.104608,0 0.118555,-0.062765 0.132503,-0.174346 L 5.50934,-4.616687 c 0,-0.097634 -0.083686,-0.097634 -0.209215,-0.097634 H 1.011208 c -0.174346,0 -0.188294,0 -0.237111,0.146451 l -0.439352,1.234371 c -0.006974,0.027895 -0.03487,0.09066 -0.03487,0.125529 0,0.027895 0.013948,0.097634 0.118556,0.097634 0.09066,0 0.104608,-0.034869 0.146451,-0.167373 0.404483,-1.115815 0.63462,-1.185554 1.694645,-1.185554 h 0.292901 c 0.209216,0 0.21619,0.00697 0.21619,0.069739 0,0.00697 0,0.041843 -0.027896,0.146451 l -0.920548,3.668244 c -0.062764,0.258032 -0.083686,0.32777 -0.81594,0.32777 -0.251058,0 -0.313823,0 -0.313823,0.153425 C 0.690411,-0.076712 0.704359,0 0.808966,0 1.004234,0 1.21345,-0.020922 1.408717,-0.020922 c 0.195267,0 0.404483,-0.006973 0.599751,-0.006973 0.195268,0 0.432379,0 0.627647,0.006973 C 2.824408,-0.013948 3.033624,0 3.221918,0 c 0.055791,0 0.160398,0 0.160398,-0.153425 0,-0.097634 -0.069738,-0.097634 -0.285927,-0.097634 -0.132504,0 -0.271981,-0.006973 -0.404484,-0.013947 -0.23711,-0.020922 -0.251058,-0.048817 -0.251058,-0.132503 0,-0.048817 0,-0.062765 0.027895,-0.160399 z"
           id="path11318"
           inkscape:connector-curvature="0" />
      </defs>
      <g
         id="g11326"
         style="stroke-width:2.5">
        <use
           x="76.712326"
           xlink:href="#equation_04_00"
           y="62.764633"
           id="use11322"
           width="100%"
           height="100%"
           style="stroke-width:2.5" />
        <use
           x="81.724792"
           xlink:href="#equation_04_01"
           y="64.25901"
           id="use11324"
           width="100%"
           height="100%"
           style="stroke-width:2.5" />
      </g>
    </g>
    <path
       inkscape:connector-curvature="0"
       id="path11332"
       d="m 133.67395,194.08003 2.24716,5.5858"
       style="fill:none;stroke:#000000;stroke-width:0.365;stroke-linecap:round;stroke-linejoin:miter;stroke-opacity:1;stroke-miterlimit:4;stroke-dasharray:none"
       inkscape:export-xdpi="600"
       inkscape:export-ydpi="600" />
  </g>
  <g
     inkscape:groupmode="layer"
     id="layer3"
     inkscape:label="バルブ色つけ"
     style="display:inline" />
</svg>
